<svg width="24" height="24" viewBox="0 0 24 24" fill="none" xmlns="http://www.w3.org/2000/svg">
<path d="M20.1429 13.3938H5.57144L10.3654 18.0032C10.502 18.1334 10.6104 18.2884 10.6844 18.4591C10.7584 18.6298 10.7965 18.8129 10.7965 18.9979C10.7965 19.1828 10.7584 19.3659 10.6844 19.5367C10.6104 19.7074 10.502 19.8623 10.3654 19.9926C10.0924 20.2535 9.72311 20.4 9.33815 20.4C8.9532 20.4 8.58388 20.2535 8.31087 19.9926L2.05973 13.9683C1.51244 13.4452 1.20327 12.7348 1.20001 11.9928C1.2071 11.2558 1.51599 10.551 2.05973 10.0314L8.31087 4.00708C8.44673 3.87737 8.60783 3.77466 8.78498 3.70481C8.96213 3.63497 9.15184 3.59935 9.34331 3.6C9.53477 3.60065 9.72422 3.63756 9.90085 3.70861C10.0775 3.77965 10.2378 3.88346 10.3727 4.01408C10.5076 4.14471 10.6145 4.29961 10.6871 4.46993C10.7597 4.64025 10.7968 4.82266 10.7961 5.00675C10.7954 5.19083 10.7571 5.37299 10.6832 5.54281C10.6093 5.71263 10.5013 5.8668 10.3654 5.99651L5.57144 10.5918H20.1429C20.5293 10.5918 20.9 10.7394 21.1732 11.0022C21.4465 11.2649 21.6 11.6213 21.6 11.9928C21.6 12.3644 21.4465 12.7208 21.1732 12.9835C20.9 13.2462 20.5293 13.3938 20.1429 13.3938Z" fill="#7C6F3B"/>
</svg>
