<svg width="40" height="41" viewBox="0 0 40 41" fill="none" xmlns="http://www.w3.org/2000/svg">
<path d="M31.0833 7.83333H24.75V6.25C24.75 3.63117 22.6188 1.5 20 1.5C17.3812 1.5 15.25 3.63117 15.25 6.25V7.83333H8.91667C4.55142 7.83333 1 11.3848 1 15.75V31.5833C1 35.9486 4.55142 39.5 8.91667 39.5H31.0833C35.4486 39.5 39 35.9486 39 31.5833V15.75C39 11.3848 35.4486 7.83333 31.0833 7.83333ZM18.4167 6.25C18.4167 5.376 19.1276 4.66667 20 4.66667C20.8724 4.66667 21.5833 5.376 21.5833 6.25V9.40875C21.5833 9.40875 21.5833 9.4135 21.5833 9.41667C21.5833 9.41983 21.5833 9.42142 21.5833 9.42458V11H18.4151V6.25H18.4167ZM35.8333 31.5833C35.8333 34.2022 33.7022 36.3333 31.0833 36.3333H8.91667C6.29783 36.3333 4.16667 34.2022 4.16667 31.5833V15.75C4.16667 13.1312 6.29783 11 8.91667 11H15.25C15.25 12.7464 16.6702 14.1667 18.4167 14.1667H21.5833C23.3298 14.1667 24.75 12.7464 24.75 11H31.0833C33.7022 11 35.8333 13.1312 35.8333 15.75V31.5833ZM16.0417 21.2917C16.0417 19.1051 17.8134 17.3333 20 17.3333C22.1866 17.3333 23.9583 19.1051 23.9583 21.2917C23.9583 23.4783 22.1866 25.25 20 25.25C17.8134 25.25 16.0417 23.4783 16.0417 21.2917ZM27.866 32.7724C28.0845 33.6179 27.5747 34.4824 26.7276 34.7009C25.8758 34.921 25.0176 34.408 24.7991 33.5609C24.275 31.5311 22.2119 30 19.9984 30C17.7849 30 15.7203 31.5311 15.1978 33.5609C15.0141 34.275 14.3713 34.75 13.6651 34.75C13.5353 34.75 13.4023 34.7342 13.2693 34.7009C12.4222 34.4824 11.9123 33.6195 12.1308 32.7724C13.0159 29.3302 16.3235 26.8333 19.9968 26.8333C23.6702 26.8333 26.9778 29.3302 27.8628 32.7724H27.866Z" fill="#7C6F3B"/>
</svg>
