<svg width="367" height="161" viewBox="0 0 367 161" fill="none" xmlns="http://www.w3.org/2000/svg">
<path d="M98.2368 156.756H94.223V153.401H93.521V160.698H94.223V157.38H98.2368V160.698H98.9388V153.401H98.2368V156.756Z" fill="#333333"/>
<path d="M107.079 157.443H110.107V156.791H107.079V154.054H110.554V153.401H106.384V160.698H110.667V160.039H107.079V157.443Z" fill="#333333"/>
<path d="M119.369 153.401L116.582 160.698H117.327L118.057 158.762H121.425L122.156 160.698H122.886L120.114 153.401H119.369ZM118.298 158.131L119.738 154.316L121.177 158.131H118.298Z" fill="#333333"/>
<path d="M130.034 153.401H129.332V160.698H133.133V160.039H130.034V153.401Z" fill="#333333"/>
<path d="M137.927 154.054H140.253V160.698H140.948V154.054H143.281V153.401H137.927V154.054Z" fill="#333333"/>
<path d="M154.591 156.756H150.57V153.401H149.875V160.698H150.57V157.38H154.591V160.698H155.286V153.401H154.591V156.756Z" fill="#333333"/>
<path d="M175.043 158.507V156.926H176.007V156.366H175.043V155.486H174.376V156.351H172.809C172.036 156.351 171.504 155.819 171.504 155.11C171.504 154.401 172.001 153.912 172.71 153.912C173.142 153.912 173.568 154.125 173.809 154.486L174.362 154.125C174.022 153.607 173.433 153.267 172.696 153.267C171.618 153.267 170.823 154.04 170.823 155.054C170.823 155.699 171.128 156.344 171.66 156.621C170.795 156.926 170.263 157.734 170.263 158.663C170.263 159.862 171.143 160.812 172.518 160.812C173.39 160.812 174.249 160.443 174.617 159.691C174.731 160.436 175.319 160.791 176.05 160.791H176.22V160.152H176.064C175.319 160.152 175.05 159.408 175.05 158.486L175.043 158.507ZM174.376 158.578C174.334 159.507 173.639 160.174 172.618 160.174C171.596 160.174 170.944 159.493 170.944 158.599C170.944 157.614 171.717 156.926 172.837 156.926H174.376V158.578Z" fill="#333333"/>
<path d="M194.303 156.812C194.984 156.536 195.268 155.862 195.268 155.203C195.268 154.068 194.502 153.401 193.332 153.401H190.687V160.698H193.601C194.892 160.698 195.665 159.727 195.665 158.684C195.665 157.919 195.239 157.053 194.31 156.812H194.303ZM191.381 154.054H193.317C194.09 154.054 194.565 154.508 194.565 155.252C194.565 155.997 194.175 156.536 193.452 156.536H191.374V154.061L191.381 154.054ZM193.48 160.039H191.381V157.146H193.445C194.395 157.146 194.963 157.848 194.963 158.628C194.963 159.408 194.424 160.039 193.48 160.039Z" fill="#333333"/>
<path d="M203.302 157.443H206.337V156.791H203.302V154.054H206.777V153.401H202.614V160.698H206.897V160.039H203.302V157.443Z" fill="#333333"/>
<path d="M215.598 153.401L212.812 160.698H213.556L214.287 158.762H217.655L218.385 160.698H219.116L216.343 153.401H215.598ZM214.528 158.131L215.967 154.316L217.407 158.131H214.528Z" fill="#333333"/>
<path d="M229.895 158.252C229.895 159.479 229.029 160.152 227.987 160.152C226.945 160.152 226.079 159.486 226.079 158.252V153.401H225.377V158.252C225.377 159.854 226.576 160.826 227.98 160.826C229.384 160.826 230.582 159.847 230.582 158.252V153.401H229.88V158.252H229.895Z" fill="#333333"/>
<path d="M237.092 154.054H239.411V160.698H240.113V154.054H242.439V153.401H237.092V154.054Z" fill="#333333"/>
<path d="M251.14 156.6L248.864 153.401H248.042L250.786 157.273V160.698H251.481V157.273L254.268 153.401H253.431L251.14 156.6Z" fill="#333333"/>
<path d="M273.18 155.621C273.18 154.501 272.599 153.394 271.074 153.394H268.365V160.691H269.067V157.833H270.287L272.287 160.691H273.138L271.124 157.841H271.145C272.578 157.841 273.187 156.72 273.187 155.614L273.18 155.621ZM270.904 157.195H269.06V154.061H271.081C272.01 154.061 272.478 154.756 272.478 155.628C272.478 156.5 272.046 157.195 270.897 157.195H270.904Z" fill="#333333"/>
<path d="M280.846 157.443H283.874V156.791H280.846V154.054H284.321V153.401H280.158V160.698H284.434V160.039H280.846V157.443Z" fill="#333333"/>
<path d="M294.121 153.401H291.355V160.698H294.121C296.185 160.698 297.383 159.131 297.383 157.068C297.383 155.004 296.185 153.401 294.121 153.401ZM294.121 160.039H292.057V154.054H294.121C295.78 154.054 296.688 155.366 296.688 157.061C296.688 158.755 295.788 160.039 294.121 160.039Z" fill="#333333"/>
<path d="M305.027 157.443H308.055V156.791H305.027V154.054H308.502V153.401H304.339V160.698H308.623V160.039H305.027V157.443Z" fill="#333333"/>
<path d="M315.544 160.698H316.239V157.443H318.941V156.791H316.239V154.054H319.65V153.401H315.544V160.698Z" fill="#333333"/>
<path d="M327.11 153.401H326.408V160.698H327.11V153.401Z" fill="#333333"/>
<path d="M339.009 159.472L335.279 153.401H334.549V160.698H335.251V154.614L338.988 160.698H339.704V153.401H339.009V159.472Z" fill="#333333"/>
<path d="M347.838 157.443H350.866V156.791H347.838V154.054H351.313V153.401H347.15V160.698H351.426V160.039H347.838V157.443Z" fill="#333333"/>
<path d="M361.113 153.401H358.347V160.698H361.113C363.176 160.698 364.375 159.131 364.375 157.068C364.375 155.004 363.176 153.401 361.113 153.401ZM361.113 160.039H359.049V154.054H361.113C362.772 154.054 363.68 155.366 363.68 157.061C363.68 158.755 362.779 160.039 361.113 160.039Z" fill="#333333"/>
<path d="M81.6924 105.428C82.7206 105.896 83.4014 106.542 83.7418 107.379L66.0417 148.778L57.1917 125.915L65.2688 107.379C65.6092 106.542 66.2545 105.889 67.1905 105.428V104.592H61.8011V105.428C62.7372 105.896 63.3825 106.542 63.7229 107.379L56.5393 124.249C52.0931 112.725 49.9515 106.783 50.1288 106.407C50.2989 106.123 50.5542 105.896 50.9017 105.712C51.2421 105.528 51.5399 105.435 51.8023 105.435V104.599H40.7753V105.435C41.8035 105.904 42.3566 106.322 42.4417 106.691C43.47 109.478 45.1577 113.938 47.505 120.072C49.8522 126.206 51.5896 130.667 52.6958 133.453L46.1576 148.785L30.1241 107.386C29.9539 106.925 30.1028 106.478 30.5708 106.06C31.0388 105.641 31.4856 105.428 31.9182 105.428V104.592H20.8911V105.428C20.9762 105.521 21.2315 105.641 21.6641 105.776C22.0896 105.918 22.3874 106.216 22.5647 106.684L42.3141 158.543L42.697 159.238V159.379L53.3411 134.985C53.3411 135.262 56.3337 143.119 62.3188 158.543L62.5741 159.238L62.7017 159.379L85.1459 107.379C85.4862 106.542 86.1741 105.889 87.1953 105.428V104.592H81.6782V105.428H81.6924Z" fill="#333333"/>
<path d="M130.821 48.0594C129.119 45.0384 126.744 42.6061 123.687 40.7553C120.631 38.9044 117.099 37.9825 113.1 37.9825C108.717 37.9825 104.966 39.0604 101.832 41.2091C98.6973 43.3578 96.343 46.1943 94.7545 49.7045C93.1661 53.2148 92.3789 56.9732 92.3789 60.9727C92.3789 64.6744 93.0171 68.0357 94.3007 71.0566C96.038 75.51 98.7895 78.85 102.569 81.0767C106.342 83.3034 110.76 84.4167 115.823 84.4167C118.163 84.4167 120.709 83.8352 123.467 82.6581C126.226 81.488 128.013 80.4101 128.85 79.4315C129.077 79.2046 128.453 79.396 126.985 79.9988C125.51 80.6016 123.85 81.1902 121.999 81.7575C120.149 82.3248 118.241 82.6084 116.277 82.6084C112.724 82.6084 109.653 81.5873 107.044 79.5521C104.441 77.5168 102.491 74.737 101.215 71.2268C99.9312 67.7166 99.3639 63.8092 99.5128 59.5048H133.828L133.714 57.9234C133.487 54.3778 132.523 51.0874 130.828 48.0664L130.821 48.0594ZM99.6192 58.1433C99.995 52.7822 101.357 48.2721 103.697 44.613C106.037 40.9538 109.285 39.1243 113.44 39.1243C117.596 39.1243 120.652 40.9325 122.836 44.5633C125.028 48.187 126.346 52.7184 126.8 58.1504H99.6192V58.1433Z" fill="#333333"/>
<path d="M192.828 39.7979H187.616V40.4787C188.523 40.8545 189.162 41.3864 189.538 42.0671L172.66 75.7014L157.258 41.9537C157.18 41.5778 157.35 41.2375 157.768 40.9325C158.18 40.6347 158.577 40.4787 158.96 40.4787V39.7979H148.429V40.4787C149.11 40.4787 149.677 40.8191 150.131 41.4998C153.003 47.9955 156.4 55.5974 160.321 64.3198C164.243 73.0422 167.037 79.2542 168.703 82.9488C166.668 87.3312 165.342 90.0118 164.739 90.9904C163.534 93.3305 161.91 95.7061 159.867 98.1243C157.357 100.776 154.528 102.131 151.372 102.188V89.7494C150.542 90.7067 149.415 91.1889 148.011 91.1889C146.607 91.1889 145.67 91.5435 145.415 92.2455V100.216C144.373 99.4433 143.373 98.4434 142.423 97.2166C141.288 95.8551 140.231 95.1743 139.253 95.1743C138.65 95.1743 138.118 95.4367 137.664 95.9685C137.366 96.4224 137.21 96.7982 137.21 97.1031C137.21 97.8548 137.608 98.6136 138.402 99.3653C139.196 100.117 140.047 100.762 140.948 101.294C142.338 102.11 143.827 102.698 145.408 103.074V141.601C145.408 142.431 144.834 142.949 143.678 143.14V143.622H153.088V143.14C151.939 142.885 151.358 142.339 151.358 141.509V103.471C154.18 103.202 156.641 102.259 158.726 100.613L160.541 98.9114C162.129 97.252 163.505 95.4367 164.675 93.4794C165.845 91.5151 167.108 89.097 168.469 86.2321L169.604 83.9699C170.738 81.7078 172.547 78.1409 175.043 73.2691C177.532 68.3973 179.872 63.8163 182.063 59.5119L191.013 41.9608C191.388 41.28 191.991 40.7907 192.828 40.4858V39.7979Z" fill="#333333"/>
<path d="M213.322 81.0767C216.719 83.2254 220.832 84.3033 225.668 84.3033C230.504 84.3033 234.518 83.2254 237.957 81.0767C241.389 78.9209 243.978 76.0915 245.715 72.5813C247.452 69.071 248.318 65.3552 248.318 61.4266C248.318 57.498 247.445 53.6899 245.715 50.2151C243.978 46.7404 241.389 43.9322 237.957 41.7764C234.518 39.6278 230.426 38.5499 225.668 38.5499C220.91 38.5499 216.704 39.6278 213.265 41.7764C209.826 43.9322 207.266 46.7404 205.564 50.2151C203.862 53.6899 203.018 57.427 203.018 61.4266C203.018 65.4261 203.883 69.071 205.621 72.5813C207.358 76.0915 209.925 78.9209 213.322 81.0767ZM211.74 50.7825C212.946 47.4637 214.761 44.7619 217.18 42.6841C219.598 40.6064 222.505 39.571 225.902 39.571C229.299 39.571 232.206 40.6134 234.624 42.6841C237.042 44.7619 238.872 47.4566 240.113 50.7825C241.361 54.1083 241.978 57.654 241.978 61.4266C241.978 65.1992 241.354 68.7519 240.113 72.0707C238.865 75.3965 237.035 78.07 234.624 80.1123C232.206 82.1475 229.299 83.1687 225.902 83.1687C222.505 83.1687 219.598 82.1475 217.18 80.1123C214.761 78.07 212.953 75.3965 211.74 72.0707C210.535 68.7519 209.932 65.1992 209.932 61.4266C209.932 57.654 210.535 54.1012 211.74 50.7825Z" fill="#333333"/>
<path d="M275.386 83.6225C273.953 83.3956 273.237 82.7928 273.237 81.8071V59.2708C273.386 57.0016 273.819 54.4983 274.542 51.7398C275.258 48.9883 276.634 46.5489 278.676 44.4357C280.109 43.0032 281.867 41.8686 283.945 41.0389C286.023 40.2092 288.079 39.8334 290.114 39.9043C291.547 39.9043 292.979 40.3794 294.419 41.3226C295.851 42.2657 297.057 43.684 298.043 45.5703C299.021 47.4566 299.518 49.7613 299.518 52.4773L299.404 71.7303C299.404 76.6375 299.589 79.6584 299.971 80.7931C301.028 83.1332 303.29 84.3033 306.765 84.3033C308.275 84.3033 309.559 84.0763 310.616 83.6225C311.672 83.1687 312.161 82.8283 312.091 82.6013C312.091 82.5233 311.637 82.4879 310.729 82.4879C309.821 82.4879 309.105 82.3744 308.58 82.1475C307.219 81.3178 306.545 80.3747 306.545 79.318C306.396 78.9422 306.318 76.7864 306.318 72.8649L306.432 60.7458C306.51 58.2567 306.545 54.9734 306.545 50.8959C306.545 47.1233 305.013 44.1166 301.957 41.8899C298.901 39.6632 295.178 38.5499 290.802 38.5499C285.292 38.5499 280.952 40.2092 277.776 43.5351C275.889 45.4994 274.379 48.0665 273.244 51.2363V39.9114C272.336 40.968 271.017 41.4999 269.28 41.4999C267.543 41.4999 266.522 41.9183 266.224 42.7479V81.8213C266.224 82.8779 265.543 83.5232 264.188 83.7501V84.3175H275.4V83.6367L275.386 83.6225Z" fill="#333333"/>
<path d="M364.63 81.8142V20.7718C363.644 21.9064 362.325 22.4667 360.666 22.4667C359.007 22.4667 357.908 22.885 357.61 23.7147V42.8543C356.177 41.4218 354.532 40.344 352.681 39.6277C350.83 38.9115 349.001 38.5498 347.185 38.5498C342.356 38.5498 338.236 39.6277 334.839 41.7764C331.443 43.9322 328.876 46.7403 327.138 50.2151C325.401 53.6899 324.536 57.427 324.536 61.4265C324.536 65.4261 325.401 69.071 327.138 72.5812C328.876 76.0914 331.443 78.9209 334.839 81.0767C338.236 83.2253 342.349 84.3032 347.185 84.3032C350.433 84.3032 353.908 83.587 357.603 82.1475V84.3032H366.665V83.7359C365.304 83.4381 364.63 82.7928 364.63 81.8071V81.8142ZM357.603 79.9988C355.036 82.112 351.674 83.1686 347.526 83.1686C344.129 83.1686 341.222 82.1475 338.803 80.1123C336.385 78.0699 334.577 75.3965 333.364 72.0707C332.159 68.7519 331.556 65.1991 331.556 61.4265C331.556 55.5336 332.918 50.4633 335.634 46.1943C338.35 41.9324 342.2 39.7979 347.185 39.7979C349.448 39.7979 351.447 40.344 353.185 41.4431C354.922 42.5352 356.39 43.84 357.603 45.3504V80.0059V79.9988Z" fill="#333333"/>
<path d="M127.276 122.589L127.177 121.242C126.985 118.235 126.17 115.448 124.73 112.888C123.29 110.328 121.277 108.265 118.681 106.698C116.086 105.131 113.093 104.343 109.703 104.343C105.988 104.343 102.804 105.258 100.151 107.081C97.4922 108.903 95.4924 111.307 94.1521 114.278C92.8048 117.257 92.1382 120.441 92.1382 123.83C92.1382 126.965 92.6842 129.816 93.7692 132.375C95.2442 136.155 97.5773 138.985 100.775 140.871C103.974 142.757 107.718 143.7 112.008 143.7C113.994 143.7 116.15 143.204 118.49 142.211C120.823 141.218 122.347 140.311 123.049 139.474C123.241 139.282 122.716 139.446 121.468 139.956C120.22 140.467 118.809 140.963 117.242 141.445C115.674 141.928 114.058 142.169 112.391 142.169C109.384 142.169 106.775 141.304 104.569 139.573C102.364 137.843 100.712 135.496 99.6266 132.517C98.5417 129.539 98.0595 126.227 98.1871 122.582H127.276V122.589ZM101.733 109.96C103.718 106.854 106.47 105.301 109.987 105.301C113.504 105.301 116.1 106.84 117.958 109.91C119.816 112.981 120.936 116.824 121.319 121.434H98.2793C98.5984 116.888 99.7543 113.066 101.733 109.96Z" fill="#333333"/>
<path d="M170.859 91.1889C169.384 91.1889 168.519 91.5435 168.263 92.2455V141.594C168.263 142.424 167.689 142.942 166.533 143.133V143.615H175.943V143.133C174.795 142.878 174.213 142.332 174.213 141.502V89.7494C173.383 90.7067 172.256 91.1889 170.852 91.1889H170.859Z" fill="#333333"/>
<path d="M228.753 143.041C229.646 142.658 230.065 142.367 230.001 142.176C230.001 142.112 229.618 142.076 228.852 142.076C228.086 142.076 227.476 141.977 227.03 141.786C225.881 141.084 225.299 140.282 225.299 139.389C225.172 139.07 225.108 137.247 225.108 133.914L225.207 123.639C225.271 121.526 225.306 118.746 225.306 115.285C225.306 112.087 224.009 109.541 221.42 107.655C218.825 105.769 215.676 104.826 211.96 104.826C207.287 104.826 203.607 106.237 200.919 109.052C199.317 110.719 198.04 112.896 197.076 115.583V105.982C196.31 106.875 195.189 107.329 193.714 107.329C192.239 107.329 191.374 107.683 191.119 108.385V141.509C191.119 142.403 190.545 142.949 189.389 143.14V143.622H198.891V143.048C197.671 142.857 197.069 142.346 197.069 141.509V122.405C197.196 120.483 197.565 118.356 198.175 116.023C198.785 113.69 199.948 111.626 201.678 109.832C202.891 108.619 204.38 107.655 206.146 106.953C207.904 106.251 209.649 105.932 211.379 105.996C212.592 105.996 213.811 106.393 215.024 107.194C216.237 107.995 217.265 109.194 218.094 110.797C218.924 112.399 219.343 114.349 219.343 116.654L219.243 132.978C219.243 137.141 219.399 139.701 219.725 140.658C220.619 142.644 222.541 143.637 225.484 143.637C226.767 143.637 227.852 143.445 228.746 143.062L228.753 143.041Z" fill="#333333"/>
<path d="M278.584 122.589L278.485 121.242C278.293 118.235 277.478 115.448 276.038 112.888C274.599 110.328 272.585 108.265 269.989 106.698C267.394 105.131 264.401 104.343 261.012 104.343C257.296 104.343 254.112 105.258 251.46 107.081C248.8 108.903 246.801 111.307 245.46 114.278C244.113 117.257 243.446 120.441 243.446 123.83C243.446 126.965 243.992 129.816 245.077 132.375C246.552 136.155 248.885 138.985 252.084 140.871C255.282 142.757 259.026 143.7 263.316 143.7C265.302 143.7 267.458 143.204 269.798 142.211C272.131 141.218 273.655 140.311 274.357 139.474C274.549 139.282 274.024 139.446 272.776 139.956C271.528 140.467 270.117 140.963 268.55 141.445C266.982 141.928 265.366 142.169 263.699 142.169C260.692 142.169 258.083 141.304 255.877 139.573C253.672 137.843 252.02 135.496 250.935 132.517C249.85 129.539 249.368 126.227 249.495 122.582H278.584V122.589ZM253.048 109.96C255.034 106.854 257.785 105.301 261.302 105.301C264.82 105.301 267.415 106.84 269.273 109.91C271.131 112.981 272.251 116.824 272.634 121.434H249.594C249.914 116.888 251.069 113.066 253.048 109.96Z" fill="#333333"/>
<path d="M315.069 124.079C313.019 123.213 310.332 122.27 307.006 121.249C302.907 120.037 299.9 118.895 297.979 117.838C296.057 116.782 295.099 115.264 295.099 113.279C295.099 111.931 295.518 110.591 296.348 109.244C297.177 107.896 298.333 106.967 299.801 106.457C301.85 105.691 303.964 105.308 306.141 105.308C307.545 105.308 308.991 105.535 310.459 105.982C311.672 106.428 312.665 106.988 313.438 107.662C314.204 108.336 314.799 109.102 315.211 109.967C315.629 110.832 315.898 111.392 316.026 111.647C316.856 113.186 317.721 113.952 318.621 113.952C318.941 113.952 319.324 113.789 319.77 113.47C320.026 113.279 320.153 112.959 320.153 112.513C320.153 111.938 319.926 111.3 319.48 110.591C319.033 109.889 318.423 109.215 317.657 108.577C316.118 107.23 314.31 106.208 312.232 105.506C310.154 104.804 307.992 104.45 305.751 104.45C302.106 104.45 298.986 105.35 296.39 107.137C293.795 108.931 292.504 111.456 292.504 114.718C292.504 117.342 293.192 119.469 294.568 121.1C295.943 122.731 297.624 123.979 299.61 124.844C301.595 125.71 304.184 126.589 307.389 127.482C309.949 128.312 311.899 128.986 313.246 129.496C314.594 130.007 315.742 130.73 316.7 131.659C317.657 132.588 318.139 133.723 318.139 135.07C318.203 137.311 316.905 139.091 314.253 140.396C311.594 141.708 308.474 142.367 304.893 142.367C302.779 142.367 300.858 142.147 299.134 141.694C297.787 141.311 296.348 140.687 294.816 139.821C293.277 138.956 292.348 138.432 292.029 138.24C291.837 138.24 292.171 138.609 293.036 139.346C293.901 140.084 294.589 140.644 295.099 141.027C296.702 141.984 298.347 142.658 300.042 143.041C301.737 143.424 303.673 143.615 305.85 143.615C308.538 143.615 311.161 143.197 313.721 142.367C316.281 141.538 318.38 140.353 320.011 138.814C321.642 137.276 322.458 135.517 322.458 133.531C322.458 131.163 321.735 129.213 320.295 127.674C318.855 126.135 317.111 124.937 315.062 124.072L315.069 124.079Z" fill="#333333"/>
<path d="M358.943 124.079C356.894 123.213 354.206 122.27 350.88 121.249C346.782 120.037 343.775 118.895 341.853 117.838C339.931 116.782 338.974 115.264 338.974 113.279C338.974 111.931 339.392 110.591 340.222 109.244C341.052 107.896 342.208 106.967 343.676 106.457C345.725 105.691 347.838 105.308 350.015 105.308C351.419 105.308 352.866 105.535 354.334 105.982C355.546 106.428 356.539 106.988 357.312 107.662C358.078 108.336 358.674 109.102 359.085 109.967C359.503 110.832 359.773 111.392 359.901 111.647C360.73 113.186 361.595 113.952 362.496 113.952C362.815 113.952 363.198 113.789 363.645 113.47C363.9 113.279 364.028 112.959 364.028 112.513C364.028 111.938 363.801 111.3 363.354 110.591C362.907 109.889 362.297 109.215 361.532 108.577C359.993 107.23 358.184 106.208 356.107 105.506C354.029 104.804 351.866 104.45 349.625 104.45C345.98 104.45 342.86 105.35 340.265 107.137C337.669 108.931 336.379 111.456 336.379 114.718C336.379 117.342 337.066 119.469 338.442 121.1C339.818 122.731 341.498 123.979 343.484 124.844C345.47 125.71 348.058 126.589 351.263 127.482C353.823 128.312 355.773 128.986 357.121 129.496C358.468 130.007 359.617 130.73 360.574 131.659C361.532 132.588 362.014 133.723 362.014 135.07C362.078 137.311 360.78 139.091 358.128 140.396C355.468 141.708 352.348 142.367 348.767 142.367C346.654 142.367 344.732 142.147 343.009 141.694C341.662 141.311 340.222 140.687 338.69 139.821C337.151 138.956 336.223 138.432 335.903 138.24C335.712 138.24 336.045 138.609 336.91 139.346C337.776 140.084 338.463 140.644 338.974 141.027C340.577 141.984 342.222 142.658 343.917 143.041C345.611 143.424 347.547 143.615 349.724 143.615C352.412 143.615 355.036 143.197 357.596 142.367C360.156 141.538 362.255 140.353 363.886 138.814C365.517 137.276 366.332 135.517 366.332 133.531C366.332 131.163 365.609 129.213 364.17 127.674C362.73 126.135 360.986 124.937 358.936 124.072L358.943 124.079Z" fill="#333333"/>
<path d="M130.233 93.8482H21.8345V94.3021H130.233V93.8482Z" fill="#333333"/>
<path d="M365.283 93.8766H185.006V94.2808H365.283V93.8766Z" fill="#333333"/>
<path d="M57.4612 42.911C57.7945 43.067 58.1207 43.216 58.454 43.372L62.411 45.3576C68.9279 49.3996 72.9417 56.1506 72.7005 63.015C72.2822 75.1412 58.8015 82.0482 49.9089 82.8566C48.6041 82.9772 47.4695 82.9559 46.5973 82.8992H34.1732C34.2016 72.794 34.23 62.6888 34.2583 52.5766C30.975 51.8107 27.8194 50.5626 24.6566 49.3854C24.5786 60.0012 24.5006 70.624 24.4226 81.2398C24.4226 83.5019 21.4372 83.7998 21.4372 83.7998V84.5585H44.5479C55.8728 84.5585 63.418 84.4096 70.8072 80.3392C77.5723 76.8715 82.7561 69.9433 82.4441 63.171C82.4441 55.7038 77.3737 48.3288 67.1622 44.3577C65.1483 43.3152 63.1414 42.2799 61.1275 41.2375C70.1122 37.3018 76.1753 29.5297 76.154 21.6086C76.1186 10.3192 63.7087 -1.0128 47.3773 0.0721776H21.4372V0.979871C21.4372 0.979871 24.4226 1.27771 24.4226 3.39093V16.127C26.1813 16.3185 27.4719 16.9354 28.5143 17.4744C31.1169 18.8075 33.3932 20.2258 34.1661 20.708V2.47615C34.6342 1.27062 36.6836 1.57554 37.4707 1.57554H44.8599C59.7943 1.57554 67.3466 11.5176 67.3466 21.6086C67.3466 28.3525 63.6662 32.9122 62.2124 34.678C60.4751 36.7841 58.5817 38.3229 56.8868 39.4434C56.3833 39.2732 55.6317 39.0037 54.7452 38.6137C51.6747 37.2592 49.6678 35.614 48.9729 35.0467C36.2865 24.7359 29.9397 19.5805 22.8271 19.4316C19.6785 19.3677 17.2887 20.2258 14.7784 21.1335C7.52393 23.7502 3.16983 28.4943 1.20553 30.9692L0 32.2669L1.51755 33.2243C2.6238 33.9121 4.24772 34.9049 6.22621 36.0608C12.1049 39.5072 21.3379 44.5491 25.848 46.2652C29.2802 47.5701 39.5343 50.5768 57.4541 42.911H57.4612ZM4.28318 32.0613C7.41755 31.6145 10.8569 31.5649 14.4664 32.2456C14.75 32.3024 15.0337 32.3591 15.3102 32.4158C14.126 32.5506 12.9701 32.9335 11.9915 33.5646C13.5516 33.2313 15.0337 32.9548 16.5725 32.7066C18.2744 33.125 19.9338 33.6497 21.579 34.2596C20.1465 34.288 18.707 34.6922 17.5227 35.458C19.1679 35.1105 20.7209 34.8198 22.3519 34.5574C23.3873 34.9545 24.4155 35.3871 25.4438 35.8339C26.1813 36.1388 26.9259 36.4437 27.6775 36.7416C25.7842 36.4083 23.7348 36.7983 22.1321 37.8194C24.061 37.4081 25.8551 37.0819 27.7981 36.7912C28.8618 37.2096 29.9326 37.6067 31.0176 37.9613C32.9251 38.564 34.8469 39.1172 36.8112 39.5214C40.7185 40.3723 44.7039 40.8333 48.6821 40.8404C44.7961 40.0036 40.9738 39.1172 37.2296 38.0109C35.3646 37.4365 33.5066 36.8692 31.6913 36.1813C30.6843 35.8197 29.6986 35.4297 28.7129 35.0325C28.8831 32.2811 27.3939 29.3807 24.9474 27.9412C26.9188 29.8842 28.1314 32.2953 28.4931 34.9404C27.7556 34.6354 27.0251 34.3305 26.2876 34.0114C25.4225 33.6568 24.5503 33.3023 23.6709 32.9619C23.3376 30.1892 21.2811 27.5654 18.5581 26.5797C20.8982 28.1398 22.5718 30.3168 23.444 32.8768C22.5363 32.5293 21.6073 32.2102 20.6642 31.9265C20.2529 31.806 19.8345 31.6996 19.4232 31.5861C18.473 29.3524 16.3952 27.5015 13.97 26.9059C16.0619 27.9908 17.7497 29.5509 18.9268 31.4585C17.6787 31.1394 16.2676 30.8699 14.7216 30.7068C10.3534 30.253 6.63041 30.8557 3.99243 31.5436C5.96383 29.2886 12.807 21.9986 22.1747 22.3603C24.6637 22.4596 26.5287 23.0623 28.0818 23.5658C35.5206 25.9769 37.7969 30.1466 45.7889 35.6211C47.7673 36.9756 50.7599 38.8619 54.7169 40.7553C43.8316 46.0738 35.7546 45.4285 31.9749 44.769C24.7205 43.5067 17.3809 39.4363 8.16924 34.3021C6.53114 33.3874 5.19087 32.6073 4.27609 32.0684L4.28318 32.0613Z" fill="#333333"/>
</svg>
