<svg width="466" height="194" viewBox="0 0 466 194" fill="none" xmlns="http://www.w3.org/2000/svg">
<path d="M147.571 156.756H143.558V153.401H142.855V160.698H143.558V157.38H147.571V160.698H148.273V153.401H147.571V156.756Z" fill="white"/>
<path d="M156.414 157.443H159.442V156.791H156.414V154.054H159.888V153.401H155.719V160.698H160.002V160.039H156.414V157.443Z" fill="white"/>
<path d="M168.703 153.401L165.917 160.698H166.661L167.392 158.762H170.76L171.49 160.698H172.221L169.448 153.401H168.703ZM167.633 158.131L169.072 154.316L170.512 158.131H167.633Z" fill="white"/>
<path d="M179.369 153.401H178.667V160.698H182.467V160.039H179.369V153.401Z" fill="white"/>
<path d="M187.261 154.054H189.587V160.698H190.282V154.054H192.615V153.401H187.261V154.054Z" fill="white"/>
<path d="M203.926 156.756H199.905V153.401H199.21V160.698H199.905V157.38H203.926V160.698H204.621V153.401H203.926V156.756Z" fill="white"/>
<path d="M224.377 158.507V156.926H225.342V156.366H224.377V155.486H223.711V156.351H222.143C221.37 156.351 220.839 155.819 220.839 155.11C220.839 154.401 221.335 153.912 222.044 153.912C222.477 153.912 222.902 154.125 223.143 154.486L223.696 154.125C223.356 153.607 222.768 153.267 222.03 153.267C220.952 153.267 220.158 154.04 220.158 155.054C220.158 155.699 220.463 156.344 220.995 156.621C220.13 156.926 219.598 157.734 219.598 158.663C219.598 159.862 220.477 160.812 221.853 160.812C222.725 160.812 223.583 160.443 223.952 159.691C224.065 160.436 224.654 160.791 225.384 160.791H225.554V160.152H225.398C224.654 160.152 224.384 159.408 224.384 158.486L224.377 158.507ZM223.711 158.578C223.668 159.507 222.973 160.174 221.952 160.174C220.931 160.174 220.278 159.493 220.278 158.599C220.278 157.614 221.051 156.926 222.172 156.926H223.711V158.578Z" fill="white"/>
<path d="M243.638 156.812C244.318 156.536 244.602 155.862 244.602 155.203C244.602 154.068 243.836 153.401 242.666 153.401H240.021V160.698H242.936C244.226 160.698 244.999 159.727 244.999 158.684C244.999 157.919 244.574 157.053 243.645 156.812H243.638ZM240.716 154.054H242.652C243.425 154.054 243.9 154.508 243.9 155.252C243.9 155.997 243.51 156.536 242.787 156.536H240.709V154.061L240.716 154.054ZM242.815 160.039H240.716V157.146H242.78C243.73 157.146 244.297 157.848 244.297 158.628C244.297 159.408 243.758 160.039 242.815 160.039Z" fill="white"/>
<path d="M252.637 157.443H255.672V156.791H252.637V154.054H256.111V153.401H251.949V160.698H256.232V160.039H252.637V157.443Z" fill="white"/>
<path d="M264.933 153.401L262.146 160.698H262.891L263.621 158.762H266.989L267.72 160.698H268.45L265.677 153.401H264.933ZM263.862 158.131L265.302 154.316L266.741 158.131H263.862Z" fill="white"/>
<path d="M279.229 158.252C279.229 159.479 278.364 160.152 277.322 160.152C276.279 160.152 275.414 159.486 275.414 158.252V153.401H274.712V158.252C274.712 159.854 275.91 160.826 277.314 160.826C278.719 160.826 279.917 159.847 279.917 158.252V153.401H279.215V158.252H279.229Z" fill="white"/>
<path d="M286.427 154.054H288.746V160.698H289.448V154.054H291.774V153.401H286.427V154.054Z" fill="white"/>
<path d="M300.475 156.6L298.199 153.401H297.376L300.12 157.273V160.698H300.815V157.273L303.602 153.401H302.765L300.475 156.6Z" fill="white"/>
<path d="M322.515 155.621C322.515 154.501 321.933 153.394 320.409 153.394H317.7V160.691H318.402V157.833H319.621L321.621 160.691H322.472L320.458 157.841H320.48C321.912 157.841 322.522 156.72 322.522 155.614L322.515 155.621ZM320.238 157.195H318.395V154.061H320.416C321.345 154.061 321.813 154.756 321.813 155.628C321.813 156.5 321.38 157.195 320.231 157.195H320.238Z" fill="white"/>
<path d="M330.181 157.443H333.209V156.791H330.181V154.054H333.655V153.401H329.493V160.698H333.769V160.039H330.181V157.443Z" fill="white"/>
<path d="M343.456 153.401H340.69V160.698H343.456C345.519 160.698 346.718 159.131 346.718 157.068C346.718 155.004 345.519 153.401 343.456 153.401ZM343.456 160.039H341.392V154.054H343.456C345.115 154.054 346.023 155.366 346.023 157.061C346.023 158.755 345.122 160.039 343.456 160.039Z" fill="white"/>
<path d="M354.362 157.443H357.39V156.791H354.362V154.054H357.836V153.401H353.674V160.698H357.957V160.039H354.362V157.443Z" fill="white"/>
<path d="M364.878 160.698H365.573V157.443H368.275V156.791H365.573V154.054H368.984V153.401H364.878V160.698Z" fill="white"/>
<path d="M376.444 153.401H375.742V160.698H376.444V153.401Z" fill="white"/>
<path d="M388.344 159.472L384.614 153.401H383.883V160.698H384.585V154.614L388.322 160.698H389.039V153.401H388.344V159.472Z" fill="white"/>
<path d="M397.172 157.443H400.2V156.791H397.172V154.054H400.647V153.401H396.484V160.698H400.76V160.039H397.172V157.443Z" fill="white"/>
<path d="M410.447 153.401H407.682V160.698H410.447C412.511 160.698 413.709 159.131 413.709 157.068C413.709 155.004 412.511 153.401 410.447 153.401ZM410.447 160.039H408.384V154.054H410.447C412.107 154.054 413.014 155.366 413.014 157.061C413.014 158.755 412.114 160.039 410.447 160.039Z" fill="white"/>
<path d="M131.027 105.428C132.055 105.896 132.736 106.542 133.076 107.379L115.376 148.778L106.526 125.915L114.603 107.379C114.944 106.542 115.589 105.889 116.525 105.428V104.592H111.136V105.428C112.072 105.896 112.717 106.542 113.057 107.379L105.874 124.249C101.428 112.725 99.2859 106.783 99.4632 106.407C99.6334 106.123 99.8887 105.896 100.236 105.712C100.577 105.528 100.874 105.435 101.137 105.435V104.599H90.1097V105.435C91.138 105.904 91.6911 106.322 91.7762 106.691C92.8045 109.478 94.4922 113.938 96.8394 120.072C99.1867 126.206 100.924 130.667 102.03 133.453L95.4921 148.785L79.4585 107.386C79.2883 106.925 79.4373 106.478 79.9053 106.06C80.3733 105.641 80.8201 105.428 81.2526 105.428V104.592H70.2256V105.428C70.3107 105.521 70.566 105.641 70.9985 105.776C71.424 105.918 71.7219 106.216 71.8991 106.684L91.6486 158.543L92.0315 159.238V159.379L102.676 134.985C102.676 135.262 105.668 143.119 111.653 158.543L111.909 159.238L112.036 159.379L134.48 107.379C134.821 106.542 135.509 105.889 136.53 105.428V104.592H131.013V105.428H131.027Z" fill="white"/>
<path d="M180.156 48.0594C178.454 45.0384 176.078 42.6061 173.022 40.7553C169.965 38.9044 166.434 37.9825 162.434 37.9825C158.052 37.9825 154.301 39.0604 151.166 41.2091C148.032 43.3578 145.677 46.1943 144.089 49.7045C142.501 53.2148 141.713 56.9732 141.713 60.9727C141.713 64.6744 142.352 68.0357 143.635 71.0566C145.373 75.51 148.124 78.85 151.904 81.0767C155.676 83.3034 160.094 84.4167 165.157 84.4167C167.498 84.4167 170.043 83.8352 172.802 82.6581C175.56 81.488 177.347 80.4101 178.184 79.4315C178.411 79.2046 177.787 79.396 176.319 79.9988C174.844 80.6016 173.185 81.1902 171.334 81.7575C169.483 82.3248 167.576 82.6084 165.611 82.6084C162.058 82.6084 158.988 81.5873 156.378 79.5521C153.776 77.5168 151.826 74.737 150.549 71.2268C149.266 67.7166 148.698 63.8092 148.847 59.5048H183.162L183.049 57.9234C182.822 54.3778 181.858 51.0874 180.163 48.0664L180.156 48.0594ZM148.954 58.1433C149.329 52.7822 150.691 48.2721 153.031 44.613C155.371 40.9538 158.619 39.1243 162.775 39.1243C166.93 39.1243 169.987 40.9325 172.171 44.5633C174.362 48.187 175.681 52.7184 176.135 58.1504H148.954V58.1433Z" fill="white"/>
<path d="M242.162 39.7979H236.95V40.4787C237.858 40.8545 238.496 41.3864 238.872 42.0671L221.995 75.7014L206.592 41.9537C206.514 41.5778 206.684 41.2375 207.103 40.9325C207.514 40.6347 207.911 40.4787 208.294 40.4787V39.7979H197.763V40.4787C198.444 40.4787 199.012 40.8191 199.465 41.4998C202.337 47.9955 205.734 55.5974 209.656 64.3198C213.577 73.0422 216.371 79.2542 218.038 82.9488C216.002 87.3312 214.676 90.0118 214.074 90.9904C212.868 93.3305 211.244 95.7061 209.202 98.1243C206.691 100.776 203.862 102.131 200.706 102.188V89.7494C199.877 90.7067 198.749 91.1889 197.345 91.1889C195.941 91.1889 195.005 91.5435 194.75 92.2455V100.216C193.707 99.4433 192.707 98.4434 191.757 97.2166C190.622 95.8551 189.566 95.1743 188.587 95.1743C187.984 95.1743 187.453 95.4367 186.999 95.9685C186.701 96.4223 186.545 96.7982 186.545 97.1031C186.545 97.8548 186.942 98.6136 187.736 99.3653C188.531 100.117 189.381 100.762 190.282 101.294C191.672 102.11 193.161 102.698 194.743 103.074V141.601C194.743 142.431 194.168 142.949 193.012 143.14V143.622H202.422V143.14C201.274 142.885 200.692 142.339 200.692 141.509V103.471C203.515 103.202 205.975 102.259 208.06 100.613L209.875 98.9114C211.464 97.252 212.84 95.4367 214.01 93.4794C215.18 91.5151 216.442 89.097 217.804 86.2321L218.938 83.9699C220.073 81.7078 221.881 78.1409 224.377 73.2691C226.866 68.3973 229.207 63.8163 231.398 59.5119L240.347 41.9608C240.723 41.28 241.326 40.7907 242.162 40.4858V39.7979Z" fill="white"/>
<path d="M262.656 81.0767C266.053 83.2254 270.166 84.3033 275.002 84.3033C279.839 84.3033 283.852 83.2254 287.292 81.0767C290.724 78.9209 293.312 76.0915 295.05 72.5813C296.787 69.071 297.652 65.3552 297.652 61.4266C297.652 57.498 296.78 53.6899 295.05 50.2151C293.312 46.7404 290.724 43.9322 287.292 41.7764C283.852 39.6278 279.761 38.5499 275.002 38.5499C270.244 38.5499 266.039 39.6278 262.6 41.7764C259.16 43.9322 256.6 46.7404 254.898 50.2151C253.196 53.6899 252.353 57.427 252.353 61.4266C252.353 65.4261 253.218 69.071 254.955 72.5813C256.692 76.0915 259.26 78.9209 262.656 81.0767ZM261.075 50.7825C262.28 47.4637 264.096 44.7619 266.514 42.6841C268.932 40.6064 271.84 39.571 275.236 39.571C278.633 39.571 281.541 40.6134 283.959 42.6841C286.377 44.7619 288.206 47.4566 289.447 50.7825C290.695 54.1083 291.312 57.654 291.312 61.4266C291.312 65.1992 290.688 68.7519 289.447 72.0707C288.199 75.3965 286.37 78.07 283.959 80.1123C281.541 82.1475 278.633 83.1687 275.236 83.1687C271.84 83.1687 268.932 82.1475 266.514 80.1123C264.096 78.07 262.288 75.3965 261.075 72.0707C259.869 68.7519 259.267 65.1992 259.267 61.4266C259.267 57.654 259.869 54.1012 261.075 50.7825Z" fill="white"/>
<path d="M324.72 83.6225C323.288 83.3956 322.572 82.7928 322.572 81.8071V59.2708C322.72 57.0016 323.153 54.4983 323.876 51.7398C324.593 48.9883 325.968 46.5489 328.011 44.4357C329.443 43.0032 331.202 41.8686 333.279 41.0389C335.357 40.2092 337.414 39.8334 339.449 39.9043C340.881 39.9043 342.314 40.3794 343.753 41.3226C345.186 42.2657 346.391 43.684 347.377 45.5703C348.356 47.4566 348.852 49.7613 348.852 52.4773L348.739 71.7303C348.739 76.6375 348.923 79.6584 349.306 80.7931C350.363 83.1332 352.625 84.3033 356.099 84.3033C357.61 84.3033 358.893 84.0763 359.95 83.6225C361.007 83.1687 361.496 82.8283 361.425 82.6013C361.425 82.5233 360.971 82.4879 360.064 82.4879C359.156 82.4879 358.44 82.3744 357.915 82.1475C356.553 81.3178 355.88 80.3747 355.88 79.318C355.731 78.9422 355.653 76.7864 355.653 72.8649L355.766 60.7458C355.844 58.2567 355.88 54.9734 355.88 50.8959C355.88 47.1233 354.348 44.1166 351.291 41.8899C348.235 39.6632 344.512 38.5499 340.137 38.5499C334.627 38.5499 330.287 40.2092 327.11 43.5351C325.224 45.4994 323.713 48.0665 322.579 51.2363V39.9114C321.671 40.968 320.352 41.4999 318.615 41.4999C316.877 41.4999 315.856 41.9183 315.558 42.7479V81.8213C315.558 82.8779 314.877 83.5232 313.523 83.7501V84.3175H324.734V83.6367L324.72 83.6225Z" fill="white"/>
<path d="M413.965 81.8142V20.7718C412.979 21.9064 411.66 22.4667 410.001 22.4667C408.341 22.4667 407.242 22.885 406.944 23.7147V42.8543C405.512 41.4218 403.867 40.3439 402.016 39.6277C400.165 38.9115 398.335 38.5498 396.52 38.5498C391.691 38.5498 387.571 39.6277 384.174 41.7764C380.777 43.9322 378.21 46.7403 376.473 50.2151C374.735 53.6899 373.87 57.427 373.87 61.4265C373.87 65.4261 374.735 69.071 376.473 72.5812C378.21 76.0914 380.777 78.9209 384.174 81.0767C387.571 83.2253 391.684 84.3032 396.52 84.3032C399.768 84.3032 403.242 83.587 406.937 82.1475V84.3032H416V83.7359C414.638 83.4381 413.965 82.7928 413.965 81.8071V81.8142ZM406.937 79.9988C404.37 82.112 401.009 83.1686 396.86 83.1686C393.464 83.1686 390.556 82.1475 388.138 80.1123C385.72 78.0699 383.911 75.3965 382.699 72.0707C381.493 68.7519 380.891 65.1991 380.891 61.4265C380.891 55.5336 382.252 50.4633 384.968 46.1943C387.684 41.9324 391.535 39.7979 396.52 39.7979C398.782 39.7979 400.782 40.344 402.519 41.4431C404.257 42.5352 405.724 43.84 406.937 45.3504V80.0059V79.9988Z" fill="white"/>
<path d="M176.61 122.589L176.511 121.242C176.32 118.235 175.504 115.448 174.065 112.888C172.625 110.328 170.611 108.265 168.016 106.698C165.42 105.131 162.428 104.343 159.038 104.343C155.322 104.343 152.138 105.258 149.486 107.081C146.827 108.903 144.827 111.307 143.487 114.278C142.139 117.257 141.473 120.441 141.473 123.83C141.473 126.965 142.019 129.816 143.104 132.375C144.579 136.155 146.912 138.985 150.11 140.871C153.308 142.757 157.052 143.7 161.343 143.7C163.328 143.7 165.484 143.204 167.824 142.211C170.157 141.218 171.682 140.311 172.384 139.474C172.575 139.282 172.051 139.446 170.802 139.956C169.554 140.467 168.143 140.963 166.576 141.445C165.009 141.928 163.392 142.169 161.726 142.169C158.719 142.169 156.109 141.304 153.904 139.573C151.698 137.843 150.046 135.496 148.961 132.517C147.876 129.539 147.394 126.227 147.522 122.582H176.61V122.589ZM151.067 109.96C153.053 106.854 155.804 105.301 159.322 105.301C162.839 105.301 165.434 106.84 167.292 109.91C169.15 112.981 170.271 116.824 170.654 121.434H147.614C147.933 116.888 149.089 113.066 151.067 109.96Z" fill="white"/>
<path d="M220.193 91.1889C218.718 91.1889 217.853 91.5435 217.598 92.2455V141.594C217.598 142.424 217.024 142.942 215.868 143.133V143.615H225.278V143.133C224.129 142.878 223.548 142.332 223.548 141.502V89.7494C222.718 90.7067 221.59 91.1889 220.186 91.1889H220.193Z" fill="white"/>
<path d="M278.087 143.041C278.981 142.658 279.399 142.367 279.335 142.176C279.335 142.112 278.952 142.076 278.187 142.076C277.421 142.076 276.811 141.977 276.364 141.786C275.215 141.084 274.634 140.282 274.634 139.389C274.506 139.07 274.442 137.247 274.442 133.914L274.542 123.639C274.605 121.526 274.641 118.746 274.641 115.285C274.641 112.087 273.343 109.541 270.755 107.655C268.159 105.769 265.011 104.826 261.295 104.826C256.622 104.826 252.941 106.237 250.254 109.052C248.651 110.719 247.375 112.896 246.41 115.583V105.982C245.644 106.875 244.524 107.329 243.049 107.329C241.574 107.329 240.709 107.683 240.453 108.385V141.509C240.453 142.403 239.879 142.949 238.723 143.14V143.622H248.226V143.048C247.006 142.857 246.403 142.346 246.403 141.509V122.405C246.531 120.483 246.899 118.356 247.509 116.023C248.119 113.69 249.282 111.626 251.012 109.832C252.225 108.619 253.714 107.655 255.48 106.953C257.239 106.251 258.983 105.932 260.713 105.996C261.926 105.996 263.146 106.393 264.358 107.194C265.571 107.995 266.599 109.194 267.429 110.797C268.259 112.399 268.677 114.349 268.677 116.654L268.578 132.978C268.578 137.141 268.734 139.701 269.06 140.658C269.953 142.644 271.875 143.637 274.818 143.637C276.102 143.637 277.187 143.445 278.08 143.062L278.087 143.041Z" fill="white"/>
<path d="M327.918 122.589L327.819 121.242C327.628 118.235 326.812 115.448 325.373 112.888C323.933 110.328 321.919 108.265 319.324 106.698C316.728 105.131 313.736 104.343 310.346 104.343C306.63 104.343 303.446 105.258 300.794 107.081C298.135 108.903 296.135 111.307 294.795 114.278C293.447 117.257 292.781 120.441 292.781 123.83C292.781 126.965 293.327 129.816 294.412 132.375C295.887 136.155 298.22 138.985 301.418 140.871C304.616 142.757 308.36 143.7 312.651 143.7C314.636 143.7 316.792 143.204 319.132 142.211C321.465 141.218 322.99 140.311 323.692 139.474C323.883 139.282 323.359 139.446 322.111 139.956C320.863 140.467 319.451 140.963 317.884 141.445C316.317 141.928 314.7 142.169 313.034 142.169C310.027 142.169 307.417 141.304 305.212 139.573C303.006 137.843 301.354 135.496 300.269 132.517C299.184 129.539 298.702 126.227 298.83 122.582H327.918V122.589ZM302.382 109.96C304.368 106.854 307.119 105.301 310.637 105.301C314.154 105.301 316.75 106.84 318.607 109.91C320.465 112.981 321.586 116.824 321.969 121.434H298.929C299.248 116.888 300.404 113.066 302.382 109.96Z" fill="white"/>
<path d="M364.403 124.079C362.354 123.213 359.666 122.27 356.34 121.249C352.242 120.037 349.235 118.895 347.313 117.838C345.391 116.782 344.434 115.264 344.434 113.279C344.434 111.931 344.852 110.591 345.682 109.244C346.512 107.896 347.668 106.967 349.136 106.457C351.185 105.691 353.298 105.308 355.475 105.308C356.879 105.308 358.326 105.535 359.794 105.982C361.006 106.428 361.999 106.988 362.772 107.662C363.538 108.336 364.134 109.102 364.545 109.967C364.963 110.832 365.233 111.392 365.361 111.647C366.19 113.186 367.055 113.952 367.956 113.952C368.275 113.952 368.658 113.789 369.105 113.47C369.36 113.279 369.488 112.959 369.488 112.513C369.488 111.938 369.261 111.3 368.814 110.591C368.367 109.889 367.757 109.215 366.992 108.577C365.453 107.23 363.644 106.208 361.567 105.506C359.489 104.804 357.326 104.45 355.085 104.45C351.44 104.45 348.32 105.35 345.725 107.137C343.129 108.931 341.839 111.456 341.839 114.718C341.839 117.342 342.526 119.469 343.902 121.1C345.278 122.731 346.958 123.979 348.944 124.844C350.93 125.71 353.518 126.589 356.723 127.482C359.283 128.312 361.233 128.986 362.581 129.496C363.928 130.007 365.077 130.73 366.034 131.659C366.992 132.588 367.474 133.723 367.474 135.07C367.538 137.311 366.24 139.091 363.588 140.396C360.928 141.708 357.808 142.367 354.227 142.367C352.114 142.367 350.192 142.147 348.469 141.694C347.122 141.311 345.682 140.687 344.15 139.821C342.611 138.956 341.682 138.432 341.363 138.24C341.172 138.24 341.505 138.609 342.37 139.346C343.236 140.084 343.923 140.644 344.434 141.027C346.037 141.984 347.682 142.658 349.377 143.041C351.071 143.424 353.007 143.615 355.184 143.615C357.872 143.615 360.496 143.197 363.056 142.367C365.616 141.538 367.715 140.353 369.346 138.814C370.977 137.276 371.792 135.517 371.792 133.531C371.792 131.163 371.069 129.213 369.63 127.674C368.19 126.135 366.446 124.937 364.396 124.072L364.403 124.079Z" fill="white"/>
<path d="M408.278 124.079C406.228 123.213 403.541 122.27 400.215 121.249C396.116 120.037 393.109 118.895 391.188 117.838C389.266 116.782 388.308 115.264 388.308 113.279C388.308 111.931 388.727 110.591 389.557 109.244C390.386 107.896 391.542 106.967 393.01 106.457C395.059 105.691 397.173 105.308 399.35 105.308C400.754 105.308 402.2 105.535 403.668 105.982C404.881 106.428 405.874 106.988 406.647 107.662C407.413 108.336 408.008 109.102 408.419 109.967C408.838 110.832 409.107 111.392 409.235 111.647C410.065 113.186 410.93 113.952 411.83 113.952C412.15 113.952 412.533 113.789 412.979 113.47C413.235 113.279 413.362 112.959 413.362 112.513C413.362 111.938 413.135 111.3 412.689 110.591C412.242 109.889 411.632 109.215 410.866 108.577C409.327 107.23 407.519 106.208 405.441 105.506C403.363 104.804 401.201 104.45 398.96 104.45C395.315 104.45 392.195 105.35 389.599 107.137C387.004 108.931 385.713 111.456 385.713 114.718C385.713 117.342 386.401 119.469 387.777 121.1C389.152 122.731 390.833 123.979 392.819 124.844C394.804 125.71 397.392 126.589 400.598 127.482C403.158 128.312 405.108 128.986 406.455 129.496C407.803 130.007 408.951 130.73 409.909 131.659C410.866 132.588 411.348 133.723 411.348 135.07C411.412 137.311 410.114 139.091 407.462 140.396C404.803 141.708 401.683 142.367 398.102 142.367C395.988 142.367 394.067 142.147 392.343 141.694C390.996 141.311 389.557 140.687 388.025 139.821C386.486 138.956 385.557 138.432 385.238 138.24C385.046 138.24 385.38 138.609 386.245 139.346C387.11 140.084 387.798 140.644 388.308 141.027C389.911 141.984 391.556 142.658 393.251 143.041C394.946 143.424 396.882 143.615 399.059 143.615C401.747 143.615 404.37 143.197 406.93 142.367C409.49 141.538 411.589 140.353 413.22 138.814C414.851 137.276 415.667 135.517 415.667 133.531C415.667 131.163 414.944 129.213 413.504 127.674C412.064 126.135 410.32 124.937 408.271 124.072L408.278 124.079Z" fill="white"/>
<path d="M179.567 93.8482H71.1689V94.3021H179.567V93.8482Z" fill="white"/>
<path d="M414.617 93.8766H234.341V94.2808H414.617V93.8766Z" fill="white"/>
<path d="M106.796 42.911C107.129 43.067 107.455 43.216 107.788 43.372L111.745 45.3576C118.262 49.3996 122.276 56.1506 122.035 63.015C121.617 75.1412 108.136 82.0482 99.2434 82.8566C97.9386 82.9772 96.804 82.9559 95.9317 82.8992H83.5077C83.5361 72.794 83.5644 62.6888 83.5928 52.5766C80.3095 51.8107 77.1538 50.5626 73.9911 49.3854C73.9131 60.0012 73.8351 70.624 73.7571 81.2398C73.7571 83.5019 70.7716 83.7998 70.7716 83.7998V84.5585H93.8823C105.207 84.5585 112.752 84.4096 120.142 80.3392C126.907 76.8715 132.091 69.9433 131.779 63.171C131.779 55.7038 126.708 48.3288 116.497 44.3577C114.483 43.3152 112.476 42.2799 110.462 41.2375C119.447 37.3018 125.51 29.5297 125.489 21.6086C125.453 10.3192 113.043 -1.0128 96.7118 0.0721776H70.7716V0.979871C70.7716 0.979871 73.7571 1.27771 73.7571 3.39093V16.127C75.5157 16.3185 76.8064 16.9354 77.8488 17.4744C80.4513 18.8075 82.7276 20.2258 83.5006 20.708V2.47615C83.9686 1.27062 86.018 1.57554 86.8052 1.57554H94.1944C109.129 1.57554 116.681 11.5176 116.681 21.6086C116.681 28.3525 113.001 32.9122 111.547 34.678C109.81 36.7841 107.916 38.3229 106.221 39.4434C105.718 39.2732 104.966 39.0037 104.08 38.6137C101.009 37.2592 99.0023 35.614 98.3074 35.0467C85.6209 24.7359 79.2742 19.5805 72.1615 19.4316C69.013 19.3677 66.6232 20.2258 64.1129 21.1335C56.8584 23.7502 52.5043 28.4943 50.54 30.9692L49.3345 32.2669L50.852 33.2243C51.9583 33.9121 53.5822 34.9049 55.5607 36.0608C61.4394 39.5072 70.6723 44.5491 75.1824 46.2652C78.6147 47.5701 88.8688 50.5768 106.789 42.911H106.796ZM53.6176 32.0613C56.752 31.6145 60.1913 31.5649 63.8008 32.2456C64.0845 32.3024 64.3681 32.3591 64.6447 32.4158C63.4604 32.5506 62.3046 32.9335 61.3259 33.5646C62.886 33.2313 64.3681 32.9548 65.907 32.7066C67.6089 33.125 69.2683 33.6497 70.9135 34.2596C69.481 34.288 68.0415 34.6922 66.8572 35.458C68.5024 35.1105 70.0554 34.8198 71.6864 34.5574C72.7218 34.9545 73.75 35.3871 74.7782 35.8339C75.5157 36.1388 76.2603 36.4437 77.012 36.7416C75.1186 36.4083 73.0692 36.7983 71.4666 37.8194C73.3954 37.4081 75.1895 37.0819 77.1326 36.7912C78.1963 37.2096 79.2671 37.6067 80.352 37.9613C82.2596 38.564 84.1814 39.1172 86.1457 39.5214C90.053 40.3723 94.0384 40.8333 98.0166 40.8404C94.1305 40.0036 90.3083 39.1172 86.5641 38.0109C84.699 37.4365 82.8411 36.8692 81.0257 36.1813C80.0188 35.8197 79.0331 35.4297 78.0474 35.0325C78.2175 32.2811 76.7284 29.3807 74.2818 27.9412C76.2532 29.8842 77.4659 32.2953 77.8275 34.9404C77.09 34.6354 76.3596 34.3305 75.6221 34.0114C74.757 33.6568 73.8847 33.3023 73.0054 32.9619C72.6721 30.1892 70.6156 27.5654 67.8925 26.5797C70.2327 28.1398 71.9062 30.3168 72.7785 32.8768C71.8708 32.5293 70.9418 32.2102 69.9987 31.9265C69.5874 31.806 69.169 31.6996 68.7577 31.5861C67.8074 29.3524 65.7297 27.5015 63.3044 26.9059C65.3964 27.9908 67.0841 29.5509 68.2613 31.4585C67.0132 31.1394 65.602 30.8699 64.0561 30.7068C59.6878 30.253 55.9649 30.8557 53.3269 31.5436C55.2983 29.2886 62.1415 21.9986 71.5091 22.3603C73.9982 22.4596 75.8632 23.0623 77.4162 23.5658C84.8551 25.9769 87.1314 30.1466 95.1233 35.6211C97.1018 36.9756 100.094 38.8619 104.051 40.7553C93.1661 46.0738 85.0891 45.4285 81.3094 44.769C74.0549 43.5067 66.7154 39.4363 57.5037 34.3021C55.8656 33.3874 54.5253 32.6073 53.6106 32.0684L53.6176 32.0613Z" fill="white"/>
<line y1="193.5" x2="466" y2="193.5" stroke="url(#paint0_linear_177_531)" stroke-opacity="0.3"/>
<defs>
<linearGradient id="paint0_linear_177_531" x1="474" y1="194.5" x2="0" y2="194.5" gradientUnits="userSpaceOnUse">
<stop stop-color="#7E713D"/>
<stop offset="0.473917" stop-color="#FEFEFE"/>
<stop offset="0.476793" stop-color="white"/>
<stop offset="1" stop-color="#7E713C"/>
</linearGradient>
</defs>
</svg>
