<svg width="24" height="24" viewBox="0 0 24 24" fill="none" xmlns="http://www.w3.org/2000/svg">
<path d="M11.619 12C12.6237 12 13.6057 11.7068 14.441 11.1573C15.2763 10.6079 15.9273 9.82705 16.3118 8.91342C16.6962 7.99979 16.7968 6.99446 16.6008 6.02455C16.4048 5.05465 15.9211 4.16373 15.2107 3.46447C14.5003 2.76521 13.5953 2.289 12.61 2.09608C11.6247 1.90315 10.6034 2.00217 9.67526 2.3806C8.74713 2.75904 7.95384 3.39991 7.39571 4.22215C6.83758 5.0444 6.53968 6.0111 6.53968 7C6.54103 8.32568 7.07661 9.59668 8.02888 10.5341C8.98115 11.4715 10.2723 11.9987 11.619 12ZM11.619 3.66667C12.2888 3.66667 12.9435 3.86217 13.5003 4.22844C14.0572 4.59471 14.4912 5.1153 14.7475 5.72439C15.0038 6.33348 15.0709 7.0037 14.9402 7.6503C14.8096 8.29691 14.4871 8.89085 14.0135 9.35702C13.5399 9.8232 12.9365 10.1407 12.2797 10.2693C11.6228 10.3979 10.9419 10.3319 10.3232 10.0796C9.70443 9.82731 9.17557 9.40007 8.80349 8.8519C8.4314 8.30374 8.2328 7.65927 8.2328 7C8.2328 6.11595 8.58957 5.2681 9.22461 4.64298C9.85966 4.01786 10.721 3.66667 11.619 3.66667Z" fill="#999999"/>
<path d="M11.619 13.6667C9.59904 13.6689 7.66241 14.4598 6.23404 15.8658C4.80568 17.2718 4.00224 19.1782 4 21.1667C4 21.3877 4.08919 21.5996 4.24795 21.7559C4.40671 21.9122 4.62204 22 4.84656 22C5.07108 22 5.28641 21.9122 5.44517 21.7559C5.60393 21.5996 5.69312 21.3877 5.69312 21.1667C5.69312 19.6196 6.31746 18.1358 7.42879 17.0419C8.54011 15.9479 10.0474 15.3333 11.619 15.3333C13.1907 15.3333 14.698 15.9479 15.8093 17.0419C16.9206 18.1358 17.545 19.6196 17.545 21.1667C17.545 21.3877 17.6342 21.5996 17.7929 21.7559C17.9517 21.9122 18.167 22 18.3915 22C18.6161 22 18.8314 21.9122 18.9901 21.7559C19.1489 21.5996 19.2381 21.3877 19.2381 21.1667C19.2359 19.1782 18.4324 17.2718 17.0041 15.8658C15.5757 14.4598 13.6391 13.6689 11.619 13.6667Z" fill="#999999"/>
</svg>
